<mxfile host="app.diagrams.net" modified="2023-09-24T03:59:42.057Z" agent="Mozilla/5.0 (Windows NT 10.0; Win64; x64) AppleWebKit/537.36 (KHTML, like Gecko) Chrome/117.0.0.0 Safari/537.36" etag="I6Vg3kFX7rh5F793uJ6v" version="21.7.1" type="github">
  <diagram name="Page-1" id="b520641d-4fe3-3701-9064-5fc419738815">
    <mxGraphModel dx="545" dy="1180" grid="1" gridSize="10" guides="1" tooltips="1" connect="1" arrows="1" fold="1" page="1" pageScale="1" pageWidth="1100" pageHeight="850" background="none" math="0" shadow="0">
      <root>
        <mxCell id="0" />
        <mxCell id="1" parent="0" />
        <mxCell id="3GrNnNi7N2yAipTBL7qC-1" value="&lt;br&gt;提取所述重建场景的几何曲面，以输出高分辨率三维网格模型" style="rounded=0;whiteSpace=wrap;html=1;spacingLeft=5;spacingRight=5;spacingBottom=10;spacingTop=2;spacing=5;" vertex="1" parent="1">
          <mxGeometry x="530" y="521" width="310" height="60" as="geometry" />
        </mxCell>
        <mxCell id="3GrNnNi7N2yAipTBL7qC-10" style="edgeStyle=orthogonalEdgeStyle;rounded=0;orthogonalLoop=1;jettySize=auto;html=1;exitX=0.5;exitY=1;exitDx=0;exitDy=0;entryX=0.5;entryY=0;entryDx=0;entryDy=0;" edge="1" parent="1" source="3GrNnNi7N2yAipTBL7qC-2" target="3GrNnNi7N2yAipTBL7qC-3">
          <mxGeometry relative="1" as="geometry" />
        </mxCell>
        <mxCell id="3GrNnNi7N2yAipTBL7qC-2" value="使用场景多视角图像，基于COLMAP软件，得到稀疏深度图和相机位姿信息" style="rounded=0;whiteSpace=wrap;html=1;spacingLeft=5;spacingRight=5;spacingBottom=10;spacingTop=2;spacing=5;" vertex="1" parent="1">
          <mxGeometry x="530" y="-30" width="310" height="60" as="geometry" />
        </mxCell>
        <mxCell id="3GrNnNi7N2yAipTBL7qC-11" style="edgeStyle=orthogonalEdgeStyle;rounded=0;orthogonalLoop=1;jettySize=auto;html=1;exitX=0.5;exitY=1;exitDx=0;exitDy=0;" edge="1" parent="1" source="3GrNnNi7N2yAipTBL7qC-3" target="3GrNnNi7N2yAipTBL7qC-4">
          <mxGeometry relative="1" as="geometry" />
        </mxCell>
        <mxCell id="3GrNnNi7N2yAipTBL7qC-3" value="将所述场景多视角图像基于2D卷积神经网络进行特征提取，得到特征图" style="rounded=0;whiteSpace=wrap;html=1;spacingLeft=5;spacingRight=5;spacingBottom=10;spacingTop=2;spacing=5;" vertex="1" parent="1">
          <mxGeometry x="530" y="50" width="310" height="60" as="geometry" />
        </mxCell>
        <mxCell id="3GrNnNi7N2yAipTBL7qC-12" style="edgeStyle=orthogonalEdgeStyle;rounded=0;orthogonalLoop=1;jettySize=auto;html=1;exitX=0.5;exitY=1;exitDx=0;exitDy=0;entryX=0.5;entryY=0;entryDx=0;entryDy=0;" edge="1" parent="1" source="3GrNnNi7N2yAipTBL7qC-4" target="3GrNnNi7N2yAipTBL7qC-5">
          <mxGeometry relative="1" as="geometry" />
        </mxCell>
        <mxCell id="3GrNnNi7N2yAipTBL7qC-4" value="将所述相机位姿信息和对应场景多视角图像提取出来的特征图通过可微分的单应性变换，得到3D代价体" style="rounded=0;whiteSpace=wrap;html=1;spacingLeft=5;spacingRight=5;spacingBottom=10;spacingTop=2;spacing=5;" vertex="1" parent="1">
          <mxGeometry x="530" y="130" width="310" height="60" as="geometry" />
        </mxCell>
        <mxCell id="3GrNnNi7N2yAipTBL7qC-13" style="edgeStyle=orthogonalEdgeStyle;rounded=0;orthogonalLoop=1;jettySize=auto;html=1;exitX=0.5;exitY=1;exitDx=0;exitDy=0;" edge="1" parent="1" source="3GrNnNi7N2yAipTBL7qC-5" target="3GrNnNi7N2yAipTBL7qC-6">
          <mxGeometry relative="1" as="geometry" />
        </mxCell>
        <mxCell id="3GrNnNi7N2yAipTBL7qC-5" value="使用3D卷积网络对所述3D代价体进行训练，得到深度值，使其与所述步骤S1中稀疏深度图的损失最小化，从而优化网络参数，得到3D优化卷积网络" style="rounded=0;whiteSpace=wrap;html=1;spacingLeft=5;spacingRight=5;spacingBottom=10;spacingTop=2;spacing=5;" vertex="1" parent="1">
          <mxGeometry x="530" y="206" width="310" height="60" as="geometry" />
        </mxCell>
        <mxCell id="3GrNnNi7N2yAipTBL7qC-14" style="edgeStyle=orthogonalEdgeStyle;rounded=0;orthogonalLoop=1;jettySize=auto;html=1;exitX=0.5;exitY=1;exitDx=0;exitDy=0;" edge="1" parent="1" source="3GrNnNi7N2yAipTBL7qC-6" target="3GrNnNi7N2yAipTBL7qC-7">
          <mxGeometry relative="1" as="geometry" />
        </mxCell>
        <mxCell id="3GrNnNi7N2yAipTBL7qC-6" value="使用所述3D优化卷积网络处理所述场景多视角图像，得到每张场景多视角图像的估计深度图" style="rounded=0;whiteSpace=wrap;html=1;spacingLeft=5;spacingRight=5;spacingBottom=10;spacingTop=2;spacing=5;" vertex="1" parent="1">
          <mxGeometry x="530" y="285" width="310" height="60" as="geometry" />
        </mxCell>
        <mxCell id="3GrNnNi7N2yAipTBL7qC-15" style="edgeStyle=orthogonalEdgeStyle;rounded=0;orthogonalLoop=1;jettySize=auto;html=1;exitX=0.5;exitY=1;exitDx=0;exitDy=0;" edge="1" parent="1" source="3GrNnNi7N2yAipTBL7qC-7">
          <mxGeometry relative="1" as="geometry">
            <mxPoint x="685" y="440" as="targetPoint" />
          </mxGeometry>
        </mxCell>
        <mxCell id="3GrNnNi7N2yAipTBL7qC-7" value="使用每张场景多视角图像的估计深度图指导优化神经隐式表面模型，得到神经隐式优化表面模型" style="rounded=0;whiteSpace=wrap;html=1;spacingLeft=5;spacingRight=5;spacingBottom=10;spacingTop=2;spacing=5;" vertex="1" parent="1">
          <mxGeometry x="530" y="362" width="310" height="60" as="geometry" />
        </mxCell>
        <mxCell id="3GrNnNi7N2yAipTBL7qC-16" value="" style="edgeStyle=orthogonalEdgeStyle;rounded=0;orthogonalLoop=1;jettySize=auto;html=1;" edge="1" parent="1" source="3GrNnNi7N2yAipTBL7qC-8" target="3GrNnNi7N2yAipTBL7qC-1">
          <mxGeometry relative="1" as="geometry" />
        </mxCell>
        <mxCell id="3GrNnNi7N2yAipTBL7qC-8" value="&lt;br&gt;将所述场景多视角图像、所述相机位姿信息和每张场景多视角图像的估计深度图输入所述神经隐式优化表面模型，得到重建场景中每一点的颜色和深度信息" style="rounded=0;whiteSpace=wrap;html=1;spacingLeft=5;spacingRight=5;spacingBottom=10;spacingTop=2;spacing=5;" vertex="1" parent="1">
          <mxGeometry x="530" y="442" width="310" height="60" as="geometry" />
        </mxCell>
        <mxCell id="3GrNnNi7N2yAipTBL7qC-27" value="" style="group" vertex="1" connectable="0" parent="1">
          <mxGeometry x="870" y="-30" width="30" height="581" as="geometry" />
        </mxCell>
        <mxCell id="3GrNnNi7N2yAipTBL7qC-18" value="S1" style="text;html=1;strokeColor=none;fillColor=none;align=center;verticalAlign=middle;whiteSpace=wrap;rounded=0;textDirection=ltr;labelPosition=center;verticalLabelPosition=middle;" vertex="1" parent="3GrNnNi7N2yAipTBL7qC-27">
          <mxGeometry width="30" height="30" as="geometry" />
        </mxCell>
        <mxCell id="3GrNnNi7N2yAipTBL7qC-19" value="S2" style="text;html=1;strokeColor=none;fillColor=none;align=center;verticalAlign=middle;whiteSpace=wrap;rounded=0;textDirection=ltr;labelPosition=center;verticalLabelPosition=middle;" vertex="1" parent="3GrNnNi7N2yAipTBL7qC-27">
          <mxGeometry y="70" width="30" height="30" as="geometry" />
        </mxCell>
        <mxCell id="3GrNnNi7N2yAipTBL7qC-20" value="S3" style="text;html=1;strokeColor=none;fillColor=none;align=center;verticalAlign=middle;whiteSpace=wrap;rounded=0;textDirection=ltr;labelPosition=center;verticalLabelPosition=middle;" vertex="1" parent="3GrNnNi7N2yAipTBL7qC-27">
          <mxGeometry y="160" width="30" height="30" as="geometry" />
        </mxCell>
        <mxCell id="3GrNnNi7N2yAipTBL7qC-21" value="S4" style="text;html=1;strokeColor=none;fillColor=none;align=center;verticalAlign=middle;whiteSpace=wrap;rounded=0;textDirection=ltr;labelPosition=center;verticalLabelPosition=middle;" vertex="1" parent="3GrNnNi7N2yAipTBL7qC-27">
          <mxGeometry y="226" width="30" height="30" as="geometry" />
        </mxCell>
        <mxCell id="3GrNnNi7N2yAipTBL7qC-22" value="S5" style="text;html=1;strokeColor=none;fillColor=none;align=center;verticalAlign=middle;whiteSpace=wrap;rounded=0;textDirection=ltr;labelPosition=center;verticalLabelPosition=middle;" vertex="1" parent="3GrNnNi7N2yAipTBL7qC-27">
          <mxGeometry y="310" width="30" height="30" as="geometry" />
        </mxCell>
        <mxCell id="3GrNnNi7N2yAipTBL7qC-23" value="S6" style="text;html=1;strokeColor=none;fillColor=none;align=center;verticalAlign=middle;whiteSpace=wrap;rounded=0;textDirection=ltr;labelPosition=center;verticalLabelPosition=middle;" vertex="1" parent="3GrNnNi7N2yAipTBL7qC-27">
          <mxGeometry y="380" width="30" height="30" as="geometry" />
        </mxCell>
        <mxCell id="3GrNnNi7N2yAipTBL7qC-24" value="S7" style="text;html=1;strokeColor=none;fillColor=none;align=center;verticalAlign=middle;whiteSpace=wrap;rounded=0;textDirection=ltr;labelPosition=center;verticalLabelPosition=middle;" vertex="1" parent="3GrNnNi7N2yAipTBL7qC-27">
          <mxGeometry y="470" width="30" height="30" as="geometry" />
        </mxCell>
        <mxCell id="3GrNnNi7N2yAipTBL7qC-25" value="S8" style="text;html=1;strokeColor=none;fillColor=none;align=center;verticalAlign=middle;whiteSpace=wrap;rounded=0;textDirection=ltr;labelPosition=center;verticalLabelPosition=middle;" vertex="1" parent="3GrNnNi7N2yAipTBL7qC-27">
          <mxGeometry y="551" width="30" height="30" as="geometry" />
        </mxCell>
        <mxCell id="3GrNnNi7N2yAipTBL7qC-28" value="" style="endArrow=none;html=1;rounded=0;entryX=0;entryY=0.75;entryDx=0;entryDy=0;exitX=1;exitY=0.5;exitDx=0;exitDy=0;" edge="1" parent="1">
          <mxGeometry width="50" height="50" relative="1" as="geometry">
            <mxPoint x="841" y="547" as="sourcePoint" />
            <mxPoint x="871" y="539.5" as="targetPoint" />
          </mxGeometry>
        </mxCell>
        <mxCell id="3GrNnNi7N2yAipTBL7qC-29" value="" style="endArrow=none;html=1;rounded=0;entryX=0;entryY=0.75;entryDx=0;entryDy=0;exitX=1;exitY=0.5;exitDx=0;exitDy=0;" edge="1" parent="1">
          <mxGeometry width="50" height="50" relative="1" as="geometry">
            <mxPoint x="842" y="466" as="sourcePoint" />
            <mxPoint x="872" y="458.5" as="targetPoint" />
          </mxGeometry>
        </mxCell>
        <mxCell id="3GrNnNi7N2yAipTBL7qC-30" value="" style="endArrow=none;html=1;rounded=0;entryX=0;entryY=0.75;entryDx=0;entryDy=0;exitX=1;exitY=0.5;exitDx=0;exitDy=0;" edge="1" parent="1">
          <mxGeometry width="50" height="50" relative="1" as="geometry">
            <mxPoint x="852" y="476" as="sourcePoint" />
            <mxPoint x="882" y="468.5" as="targetPoint" />
          </mxGeometry>
        </mxCell>
      </root>
    </mxGraphModel>
  </diagram>
</mxfile>
